<svg width="251" height="37" viewBox="0 0 251 37" fill="none" xmlns="http://www.w3.org/2000/svg">
<path d="M44.1859 11.6185C44.1859 11.5676 44.1959 11.5172 44.2153 11.4701C44.2346 11.4231 44.263 11.3804 44.2989 11.3444C44.3347 11.3084 44.3772 11.2798 44.424 11.2603C44.4708 11.2409 44.5209 11.2308 44.5715 11.2308H50.4662C51.4708 11.2234 52.4451 11.5761 53.2143 12.2258C53.9835 12.8754 54.4971 13.7794 54.663 14.7755C54.8288 15.7715 54.6361 16.7944 54.1193 17.6605C53.6026 18.5265 52.7957 19.1791 51.8434 19.5009L54.5428 24.5405C54.5806 24.5979 54.6017 24.6647 54.6038 24.7335C54.6058 24.8023 54.5886 24.8703 54.5543 24.9298C54.5199 24.9893 54.4697 25.038 54.4092 25.0703C54.3488 25.1026 54.2806 25.1174 54.2123 25.1128H51.5863C51.5246 25.1137 51.4636 25.099 51.4091 25.0699C51.3545 25.0409 51.3081 24.9985 51.2742 24.9466L48.6482 19.7409H47.2893V24.799C47.2848 24.8954 47.2447 24.9868 47.1768 25.055C47.1089 25.1233 47.018 25.1637 46.9221 25.1682H44.5715C44.5218 25.1707 44.472 25.163 44.4253 25.1455C44.3786 25.1281 44.336 25.1013 44.2999 25.0668C44.2638 25.0322 44.2351 24.9907 44.2155 24.9447C44.1959 24.8986 44.1859 24.849 44.1859 24.799V11.6185ZM50.2091 17.1565C50.6135 17.1331 50.994 16.9562 51.2736 16.6614C51.5532 16.3667 51.7109 15.9762 51.7149 15.5689C51.7101 15.169 51.5499 14.7867 51.2686 14.5039C50.9872 14.221 50.607 14.06 50.2091 14.0552H47.2893V17.1565H50.2091Z" fill="white"/>
<path d="M58.7847 11.6184C58.7847 11.5675 58.7946 11.5171 58.814 11.4701C58.8334 11.4231 58.8618 11.3803 58.8976 11.3443C58.9334 11.3083 58.9759 11.2798 59.0227 11.2603C59.0695 11.2408 59.1197 11.2308 59.1703 11.2308H67.342C67.4411 11.2355 67.5345 11.2784 67.6029 11.3506C67.6713 11.4228 67.7094 11.5187 67.7093 11.6184V13.8336C67.7093 13.9316 67.6706 14.0255 67.6017 14.0947C67.5328 14.1639 67.4394 14.2028 67.342 14.2028H61.833V16.6765H66.332C66.4294 16.6765 66.5228 16.7154 66.5917 16.7846C66.6606 16.8539 66.6993 16.9478 66.6993 17.0457V19.2055C66.7019 19.2547 66.6943 19.3039 66.6767 19.3499C66.6592 19.3959 66.6323 19.4377 66.5976 19.4725C66.563 19.5073 66.5214 19.5344 66.4756 19.552C66.4299 19.5697 66.3809 19.5774 66.332 19.5747H61.8697V22.2514H67.3787C67.4778 22.2562 67.5712 22.2991 67.6396 22.3713C67.708 22.4435 67.7461 22.5394 67.746 22.6391V24.7989C67.746 24.8968 67.7073 24.9907 67.6384 25.06C67.5696 25.1292 67.4761 25.1681 67.3787 25.1681H59.1703C59.1206 25.1706 59.0708 25.1629 59.0241 25.1455C58.9774 25.1281 58.9347 25.1013 58.8986 25.0667C58.8626 25.0322 58.8339 24.9906 58.8143 24.9446C58.7947 24.8986 58.7846 24.849 58.7847 24.7989V11.6184Z" fill="white"/>
<path d="M71.7125 11.4522C71.7149 11.4037 71.7267 11.3561 71.7474 11.3122C71.7681 11.2683 71.7971 11.229 71.833 11.1964C71.8688 11.1638 71.9106 11.1386 71.9561 11.1223C72.0017 11.1061 72.0499 11.099 72.0982 11.1014H72.5756L80.4718 18.707V11.6183C80.4718 11.5674 80.4818 11.517 80.5012 11.47C80.5206 11.4229 80.549 11.3802 80.5848 11.3442C80.6206 11.3082 80.6631 11.2796 80.7099 11.2602C80.7567 11.2407 80.8068 11.2307 80.8575 11.2307H83.208C83.3088 11.2352 83.4043 11.2775 83.4757 11.3492C83.5471 11.4209 83.5891 11.517 83.5936 11.6183V24.9649C83.5913 25.0134 83.5794 25.061 83.5588 25.1049C83.5381 25.1488 83.509 25.1881 83.4732 25.2207C83.4374 25.2533 83.3955 25.2785 83.35 25.2948C83.3045 25.3111 83.2562 25.3182 83.208 25.3157H82.8958C82.8044 25.3043 82.7166 25.2728 82.6387 25.2234L74.8527 17.3409V24.725C74.8527 24.8229 74.814 24.9168 74.7451 24.986C74.6762 25.0553 74.5828 25.0942 74.4854 25.0942H72.1165C72.0173 25.0943 71.9219 25.056 71.8501 24.9872C71.7783 24.9185 71.7356 24.8245 71.7309 24.725L71.7125 11.4522Z" fill="white"/>
<path d="M90.1494 14.2028H87.3214C87.2725 14.2055 87.2235 14.1978 87.1778 14.1802C87.132 14.1626 87.0905 14.1355 87.0558 14.1006C87.0212 14.0658 86.9942 14.024 86.9767 13.978C86.9592 13.932 86.9515 13.8828 86.9541 13.8336V11.6184C86.9516 11.5684 86.9593 11.5184 86.9766 11.4715C86.994 11.4245 87.0206 11.3816 87.055 11.3454C87.0893 11.3091 87.1307 11.2802 87.1765 11.2605C87.2223 11.2408 87.2716 11.2307 87.3214 11.2308H96.0807C96.1305 11.2307 96.1798 11.2408 96.2256 11.2605C96.2714 11.2802 96.3128 11.3091 96.3471 11.3454C96.3815 11.3816 96.4081 11.4245 96.4255 11.4715C96.4428 11.5184 96.4505 11.5684 96.448 11.6184V13.8336C96.4506 13.8828 96.443 13.932 96.4254 13.978C96.4079 14.024 96.381 14.0658 96.3463 14.1006C96.3117 14.1355 96.2701 14.1626 96.2243 14.1802C96.1786 14.1978 96.1297 14.2055 96.0807 14.2028H93.3262V24.7989C93.3262 24.8968 93.2875 24.9907 93.2186 25.06C93.1498 25.1292 93.0564 25.1681 92.9589 25.1681H90.5166C90.4192 25.1681 90.3258 25.1292 90.2569 25.06C90.188 24.9907 90.1494 24.8968 90.1494 24.7989V14.2028Z" fill="white"/>
<path d="M97.3294 24.6698L103.5 11.3231C103.529 11.2595 103.576 11.2053 103.634 11.1663C103.692 11.1273 103.76 11.1049 103.83 11.1016H104.032C104.103 11.1028 104.171 11.1243 104.23 11.1636C104.288 11.2029 104.334 11.2582 104.363 11.3231L110.551 24.6698C110.577 24.7258 110.588 24.7878 110.583 24.8494C110.578 24.9111 110.556 24.9703 110.521 25.0209C110.485 25.0715 110.437 25.1118 110.381 25.1377C110.325 25.1635 110.263 25.1741 110.202 25.1682H108.017C107.668 25.1682 107.503 25.0574 107.319 24.6882L106.621 23.1191H101.259L100.543 24.7067C100.488 24.8505 100.389 24.9729 100.26 25.0559C100.132 25.139 99.9796 25.1783 99.8269 25.1682H97.66C97.5983 25.1769 97.5355 25.168 97.4786 25.1424C97.4218 25.1168 97.3733 25.0756 97.3388 25.0235C97.3042 24.9714 97.285 24.9106 97.2834 24.848C97.2817 24.7854 97.2977 24.7236 97.3294 24.6698V24.6698ZM105.428 20.424L103.94 17.1565L102.508 20.424H105.428Z" fill="white"/>
<path d="M113.526 11.6184C113.526 11.5187 113.564 11.4228 113.632 11.3506C113.701 11.2784 113.794 11.2355 113.893 11.2308H116.244C116.345 11.2353 116.44 11.2776 116.511 11.3493C116.583 11.4211 116.625 11.5171 116.629 11.6184V22.196H121.312C121.414 22.196 121.512 22.2369 121.585 22.3096C121.657 22.3823 121.698 22.4809 121.698 22.5837V24.7435C121.698 24.7936 121.688 24.8432 121.668 24.8892C121.648 24.9353 121.62 24.9768 121.584 25.0113C121.548 25.0459 121.505 25.0727 121.458 25.0901C121.412 25.1075 121.362 25.1152 121.312 25.1127H113.967C113.918 25.1127 113.871 25.1032 113.826 25.0846C113.782 25.0661 113.741 25.0389 113.707 25.0046C113.673 24.9703 113.646 24.9296 113.627 24.8848C113.609 24.84 113.599 24.792 113.599 24.7435L113.526 11.6184Z" fill="white"/>
<path d="M131.026 11.1015C131.904 11.075 132.779 11.2245 133.598 11.5415C134.418 11.8584 135.167 12.3364 135.801 12.9475C135.838 12.9836 135.867 13.0267 135.887 13.0743C135.906 13.1218 135.917 13.1729 135.917 13.2244C135.917 13.276 135.906 13.3271 135.887 13.3746C135.867 13.4222 135.838 13.4652 135.801 13.5013L134.258 15.1074C134.191 15.1696 134.102 15.2042 134.01 15.2042C133.919 15.2042 133.83 15.1696 133.763 15.1074C133.03 14.4508 132.082 14.0892 131.1 14.0921C130.078 14.1614 129.12 14.6185 128.421 15.3708C127.721 16.123 127.332 17.1143 127.332 18.144C127.332 19.1738 127.721 20.1651 128.421 20.9173C129.12 21.6696 130.078 22.1266 131.1 22.196C132.057 22.196 132.985 21.8634 133.726 21.2546C133.794 21.1869 133.887 21.149 133.983 21.149C134.079 21.149 134.171 21.1869 134.24 21.2546L135.783 22.8975C135.844 22.9732 135.877 23.0677 135.877 23.1652C135.877 23.2627 135.844 23.3572 135.783 23.4328C134.487 24.6562 132.766 25.3191 130.99 25.2789C130.027 25.3281 129.065 25.18 128.161 24.8437C127.257 24.5074 126.431 23.9898 125.733 23.3224C125.034 22.655 124.478 21.8518 124.098 20.9616C123.718 20.0714 123.522 19.1128 123.522 18.144C123.522 17.1753 123.718 16.2167 124.098 15.3265C124.478 14.4363 125.034 13.633 125.733 12.9657C126.431 12.2983 127.257 11.7807 128.161 11.4444C129.065 11.1081 130.027 10.96 130.99 11.0092L131.026 11.1015Z" fill="white"/>
<path d="M145.588 11.1016C146.995 11.098 148.37 11.5139 149.542 12.2967C150.713 13.0794 151.626 14.1939 152.167 15.499C152.708 16.804 152.851 18.2411 152.579 19.6281C152.307 21.0151 151.631 22.2898 150.638 23.2907C149.645 24.2917 148.379 24.9739 147 25.2511C145.621 25.5282 144.191 25.3878 142.891 24.8477C141.592 24.3075 140.481 23.3918 139.699 22.2166C138.917 21.0414 138.5 19.6594 138.5 18.2457C138.495 17.3077 138.675 16.378 139.029 15.5103C139.384 14.6425 139.905 13.8539 140.564 13.1898C141.223 12.5256 142.006 11.9992 142.869 11.6408C143.731 11.2824 144.655 11.0992 145.588 11.1016ZM145.588 22.1777C146.371 22.1813 147.137 21.9512 147.789 21.5165C148.441 21.0818 148.95 20.4621 149.251 19.7362C149.552 19.0102 149.632 18.2106 149.48 17.439C149.328 16.6674 148.952 15.9585 148.398 15.4024C147.845 14.8462 147.14 14.4678 146.372 14.3153C145.605 14.1627 144.809 14.2429 144.087 14.5455C143.365 14.8482 142.749 15.3598 142.316 16.0153C141.884 16.6708 141.655 17.4407 141.659 18.2272C141.659 19.2767 142.072 20.2834 142.808 21.0272C143.545 21.771 144.544 22.1913 145.588 22.1961V22.1777Z" fill="white"/>
<path d="M154.568 11.8032C154.539 11.7479 154.524 11.6857 154.526 11.623C154.529 11.5603 154.548 11.4993 154.582 11.4465C154.615 11.3937 154.663 11.351 154.718 11.3228C154.774 11.2946 154.836 11.282 154.899 11.2863H157.598C157.668 11.2914 157.735 11.3146 157.792 11.3534C157.85 11.3922 157.897 11.4454 157.929 11.5078L161.179 18.7441H161.271L164.521 11.5078C164.553 11.4454 164.6 11.3922 164.657 11.3534C164.715 11.3146 164.782 11.2914 164.852 11.2863H167.478C167.54 11.282 167.602 11.2946 167.658 11.3228C167.714 11.351 167.761 11.3937 167.795 11.4465C167.829 11.4993 167.848 11.5603 167.85 11.623C167.852 11.6857 167.838 11.7479 167.808 11.8032L161.62 25.1498C161.592 25.2147 161.545 25.2701 161.487 25.3093C161.428 25.3486 161.36 25.3701 161.289 25.3713H161.087C161.016 25.3726 160.947 25.352 160.888 25.3124C160.828 25.2729 160.783 25.2161 160.757 25.1498L154.568 11.8032Z" fill="white"/>
<path d="M170.783 11.6184C170.781 11.5684 170.788 11.5184 170.806 11.4715C170.823 11.4245 170.85 11.3816 170.884 11.3454C170.918 11.3091 170.96 11.2802 171.005 11.2605C171.051 11.2408 171.101 11.2307 171.15 11.2308H179.322C179.372 11.2307 179.421 11.2408 179.467 11.2605C179.513 11.2802 179.554 11.3091 179.588 11.3454C179.623 11.3816 179.65 11.4245 179.667 11.4715C179.684 11.5184 179.692 11.5684 179.689 11.6184V13.8336C179.692 13.8828 179.684 13.932 179.667 13.978C179.649 14.024 179.622 14.0658 179.588 14.1006C179.553 14.1355 179.511 14.1626 179.466 14.1802C179.42 14.1978 179.371 14.2055 179.322 14.2028H173.813V16.6765H178.312C178.411 16.6764 178.507 16.7147 178.578 16.7834C178.65 16.8522 178.693 16.9461 178.698 17.0457V19.2055C178.698 19.2556 178.688 19.3052 178.668 19.3512C178.649 19.3972 178.62 19.4388 178.584 19.4733C178.548 19.5079 178.505 19.5347 178.458 19.5521C178.412 19.5695 178.362 19.5772 178.312 19.5747H173.813V22.2514H179.322C179.372 22.2514 179.421 22.2615 179.467 22.2812C179.513 22.3009 179.554 22.3297 179.588 22.366C179.623 22.4023 179.65 22.4452 179.667 22.4921C179.684 22.5391 179.692 22.5891 179.689 22.6391V24.7989C179.692 24.8481 179.684 24.8973 179.667 24.9433C179.649 24.9893 179.622 25.0311 179.588 25.0659C179.553 25.1007 179.511 25.1278 179.466 25.1454C179.42 25.1631 179.371 25.1708 179.322 25.1681H171.15C171.101 25.1708 171.053 25.1631 171.007 25.1454C170.961 25.1278 170.919 25.1007 170.885 25.0659C170.85 25.0311 170.823 24.9893 170.806 24.9433C170.788 24.8973 170.78 24.8481 170.783 24.7989V11.6184Z" fill="white"/>
<path d="M183.729 11.6185C183.727 11.5685 183.734 11.5185 183.751 11.4715C183.769 11.4246 183.795 11.3817 183.83 11.3454C183.864 11.3091 183.906 11.2803 183.951 11.2606C183.997 11.2409 184.046 11.2308 184.096 11.2308H189.991C190.995 11.2234 191.97 11.5761 192.739 12.2258C193.508 12.8754 194.022 13.7794 194.188 14.7755C194.354 15.7715 194.161 16.7944 193.644 17.6605C193.127 18.5265 192.32 19.1791 191.368 19.5009L194.086 24.5405C194.125 24.5992 194.147 24.668 194.148 24.7386C194.15 24.8093 194.131 24.8789 194.094 24.9392C194.057 24.9994 194.004 25.0478 193.941 25.0786C193.878 25.1094 193.807 25.1212 193.737 25.1128H191.111C191.049 25.1137 190.988 25.099 190.934 25.0699C190.879 25.0409 190.833 24.9985 190.799 24.9467L188.173 19.6855H186.814V24.7436C186.814 24.8415 186.775 24.9354 186.706 25.0047C186.638 25.0739 186.544 25.1128 186.447 25.1128H184.096C184.047 25.1155 183.998 25.1077 183.953 25.0901C183.907 25.0725 183.865 25.0454 183.831 25.0106C183.796 24.9757 183.769 24.934 183.752 24.888C183.734 24.842 183.726 24.7928 183.729 24.7436V11.6185ZM189.734 17.1565C190.138 17.1331 190.519 16.9562 190.798 16.6614C191.078 16.3667 191.236 15.9762 191.24 15.5689C191.235 15.169 191.075 14.7867 190.793 14.5039C190.512 14.221 190.132 14.06 189.734 14.0552H186.814V17.1565H189.734Z" fill="white"/>
<path d="M198.824 21.6052C199.311 21.6052 199.778 21.7997 200.122 22.1459C200.467 22.4921 200.66 22.9616 200.66 23.4512C200.66 23.9408 200.467 24.4104 200.122 24.7566C199.778 25.1028 199.311 25.2972 198.824 25.2972C198.337 25.2972 197.87 25.1028 197.525 24.7566C197.181 24.4104 196.988 23.9408 196.988 23.4512C196.988 22.9616 197.181 22.4921 197.525 22.1459C197.87 21.7997 198.337 21.6052 198.824 21.6052Z" fill="white"/>
<path d="M209.934 11.1015C210.812 11.0729 211.687 11.2215 212.507 11.5386C213.327 11.8556 214.075 12.3347 214.708 12.9475C214.747 12.9822 214.778 13.0248 214.8 13.0725C214.821 13.1203 214.832 13.1721 214.832 13.2244C214.832 13.2768 214.821 13.3286 214.8 13.3763C214.778 13.4241 214.747 13.4667 214.708 13.5013L213.166 15.1074C213.098 15.1696 213.009 15.2042 212.918 15.2042C212.826 15.2042 212.737 15.1696 212.67 15.1074C211.935 14.4538 210.988 14.0927 210.007 14.0921C208.985 14.1614 208.027 14.6185 207.328 15.3708C206.628 16.123 206.239 17.1143 206.239 18.144C206.239 19.1738 206.628 20.1651 207.328 20.9173C208.027 21.6696 208.985 22.1266 210.007 22.196C210.969 22.1942 211.902 21.8621 212.651 21.2546C212.72 21.1869 212.812 21.149 212.908 21.149C213.005 21.149 213.097 21.1869 213.166 21.2546L214.708 22.8975C214.769 22.9732 214.803 23.0677 214.803 23.1652C214.803 23.2627 214.769 23.3572 214.708 23.4328C213.406 24.6573 211.679 25.32 209.897 25.2789C208.934 25.3281 207.972 25.18 207.068 24.8437C206.165 24.5074 205.338 23.9898 204.64 23.3224C203.941 22.655 203.385 21.8518 203.005 20.9616C202.625 20.0714 202.429 19.1128 202.429 18.144C202.429 17.1753 202.625 16.2167 203.005 15.3265C203.385 14.4363 203.941 13.633 204.64 12.9657C205.338 12.2983 206.165 11.7807 207.068 11.4444C207.972 11.1081 208.934 10.96 209.897 11.0092L209.934 11.1015Z" fill="white"/>
<path d="M224.496 11.1017C225.903 11.0943 227.281 11.5071 228.454 12.2877C229.628 13.0682 230.544 14.1814 231.088 15.4861C231.631 16.7909 231.777 18.2284 231.507 19.6167C231.237 21.0049 230.563 22.2813 229.571 23.2841C228.578 24.2869 227.312 24.971 225.933 25.2496C224.553 25.5283 223.122 25.389 221.822 24.8494C220.521 24.3098 219.409 23.3941 218.626 22.2185C217.844 21.0429 217.426 19.6602 217.426 18.2457C217.424 17.31 217.605 16.3829 217.959 15.5174C218.313 14.652 218.833 13.8651 219.489 13.2017C220.146 12.5384 220.926 12.0115 221.785 11.6511C222.644 11.2908 223.565 11.1041 224.496 11.1017V11.1017ZM224.496 22.1777C225.279 22.185 226.047 21.958 226.701 21.5255C227.356 21.0931 227.867 20.4747 228.171 19.7491C228.475 19.0235 228.558 18.2234 228.408 17.4505C228.258 16.6777 227.883 15.9671 227.331 15.4091C226.778 14.8511 226.073 14.4708 225.305 14.3168C224.537 14.1627 223.741 14.2418 223.018 14.5439C222.294 14.846 221.677 15.3575 221.244 16.0134C220.81 16.6693 220.581 17.4399 220.584 18.2272C220.582 18.746 220.681 19.2602 220.877 19.7404C221.072 20.2206 221.359 20.6575 221.722 21.026C222.086 21.3946 222.518 21.6876 222.993 21.8884C223.469 22.0892 223.98 22.1937 224.496 22.1961V22.1777Z" fill="white"/>
<path d="M236.744 11.4155C236.753 11.329 236.794 11.249 236.859 11.191C236.923 11.133 237.007 11.1012 237.093 11.1016H237.405C237.471 11.1058 237.534 11.1246 237.591 11.1565C237.648 11.1884 237.698 11.2327 237.736 11.2862L242.327 19.8517L246.899 11.2862C246.937 11.2327 246.987 11.1884 247.044 11.1565C247.101 11.1246 247.164 11.1058 247.23 11.1016H247.579C247.667 11.1006 247.753 11.1318 247.821 11.1895C247.888 11.2472 247.933 11.3274 247.946 11.4155L250.168 24.7436C250.179 24.797 250.178 24.8524 250.165 24.9054C250.151 24.9583 250.126 25.0074 250.09 25.0486C250.055 25.0899 250.01 25.1222 249.959 25.1429C249.909 25.1637 249.855 25.1723 249.801 25.1682H247.468C247.38 25.1692 247.294 25.138 247.226 25.0803C247.159 25.0227 247.114 24.9424 247.101 24.8544L246.201 18.7256L242.896 25.1497C242.859 25.2115 242.808 25.2637 242.748 25.3021C242.687 25.3406 242.618 25.3643 242.547 25.3713H242.198C242.129 25.3661 242.062 25.343 242.004 25.3042C241.946 25.2654 241.899 25.2122 241.868 25.1497L238.525 18.7256L237.662 24.8544C237.645 24.9439 237.597 25.0245 237.526 25.0819C237.456 25.1393 237.367 25.1699 237.277 25.1682H234.963C234.908 25.1716 234.853 25.1626 234.803 25.1419C234.752 25.1213 234.706 25.0894 234.669 25.0486C234.632 25.0079 234.605 24.9594 234.589 24.9066C234.573 24.8538 234.569 24.7981 234.577 24.7436L236.744 11.4155Z" fill="white"/>
<path d="M12.6125 35.6061V17.3097L27.8684 7.70039C28.0402 7.5915 28.1836 7.44286 28.2865 7.26689C28.3895 7.09092 28.4491 6.89273 28.4603 6.68888C28.489 6.49216 28.4594 6.2913 28.3752 6.1114C28.291 5.93149 28.1559 5.78053 27.9868 5.67738L18.2058 0.143838C18.0466 0.0496617 17.8653 0 17.6805 0C17.4958 0 17.3145 0.0496617 17.1552 0.143838L1.42583 10.2589C1.2438 10.3747 1.09401 10.5351 0.990484 10.7251C0.886961 10.915 0.833097 11.1282 0.833938 11.3448V30.37C0.831028 30.5487 0.874545 30.725 0.960186 30.8815C1.04583 31.038 1.17063 31.1694 1.32225 31.2626L10.9404 36.7366C11.1083 36.8308 11.2997 36.8739 11.4915 36.8607C11.6833 36.8475 11.8671 36.7786 12.0206 36.6622C12.1912 36.5439 12.3312 36.3863 12.429 36.2026C12.5268 36.0189 12.5796 35.8144 12.5829 35.6061" fill="#0096FF"/>
<path d="M16.9037 36.7366L30.9462 28.5107C31.1102 28.4097 31.242 28.2635 31.3259 28.0895C31.4099 27.9155 31.4424 27.721 31.4197 27.5289C31.399 27.3223 31.3307 27.1233 31.2203 26.9477C31.1099 26.7722 30.9603 26.6249 30.7834 26.5174L16.6521 18.3807C16.5013 18.2857 16.327 18.2353 16.149 18.2353C15.9711 18.2353 15.7967 18.2857 15.6459 18.3807C15.4943 18.4739 15.3695 18.6053 15.2839 18.7618C15.1982 18.9183 15.1547 19.0946 15.1576 19.2732V35.6359C15.1794 35.8498 15.251 36.0556 15.3667 36.2365C15.4824 36.4174 15.6389 36.5684 15.8235 36.6771C15.977 36.7935 16.1608 36.8624 16.3526 36.8756C16.5444 36.8888 16.7358 36.8457 16.9037 36.7515" fill="#0096FF"/>
</svg>
